<?xml version="1.0" encoding="UTF-8" standalone="no"?><!-- Generator: Gravit.io --><svg xmlns="http://www.w3.org/2000/svg" xmlns:xlink="http://www.w3.org/1999/xlink" style="isolation:isolate" viewBox="0 0 297.638 419.528" width="297.638pt" height="419.528pt"><defs><clipPath id="_clipPath_AGJNFHycHSw9ZCtb8X05OYKRifxpXjlt"><rect width="297.638" height="419.528"/></clipPath></defs><g clip-path="url(#_clipPath_AGJNFHycHSw9ZCtb8X05OYKRifxpXjlt)"><mask id="_mask_H4Z2IDRkIznofQb0qq2JOkzrYQ4Cm8zg"><path d=" M 159.75 132.75 Q 152.138 105.745 142.125 94.875 Q 132.323 84.234 107.25 75 C 107.25 75 107.25 75 107.25 75 Q 138.062 72.573 154.125 67.875 Q 165.697 64.49 186 55.125 L 186 84 Q 226.187 108.563 246 145.5 C 265.307 181.494 266.957 229.875 264 259.588 Q 258.124 318.637 168.75 399.375 Q 248.25 300.75 246 235.125 C 245.119 209.432 240.494 171.376 228.75 150.75 Q 212.071 121.457 173.287 104.615 C 173.287 104.615 173.287 104.615 173.287 104.615 L 159.75 132.75 Z " fill="white" stroke="none"/></mask><path d=" M 159.75 132.75 Q 152.138 105.745 142.125 94.875 Q 132.323 84.234 107.25 75 C 107.25 75 107.25 75 107.25 75 Q 138.062 72.573 154.125 67.875 Q 165.697 64.49 186 55.125 L 186 84 Q 226.187 108.563 246 145.5 C 265.307 181.494 266.957 229.875 264 259.588 Q 258.124 318.637 168.75 399.375 Q 248.25 300.75 246 235.125 C 245.119 209.432 240.494 171.376 228.75 150.75 Q 212.071 121.457 173.287 104.615 C 173.287 104.615 173.287 104.615 173.287 104.615 L 159.75 132.75 Z " fill="none"/><path d=" M 159.75 132.75 Q 152.138 105.745 142.125 94.875 Q 132.323 84.234 107.25 75 C 107.25 75 107.25 75 107.25 75 Q 138.062 72.573 154.125 67.875 Q 165.697 64.49 186 55.125 L 186 84 Q 226.187 108.563 246 145.5 C 265.307 181.494 266.957 229.875 264 259.588 Q 258.124 318.637 168.75 399.375 Q 248.25 300.75 246 235.125 C 245.119 209.432 240.494 171.376 228.75 150.75 Q 212.071 121.457 173.287 104.615 C 173.287 104.615 173.287 104.615 173.287 104.615 L 159.75 132.75 Z " fill="none" mask="url(#_mask_H4Z2IDRkIznofQb0qq2JOkzrYQ4Cm8zg)" vector-effect="non-scaling-stroke" stroke-width="2" stroke="rgb(0,0,0)" stroke-linejoin="miter" stroke-linecap="square" stroke-miterlimit="3"/></g></svg>