<?xml version="1.0" encoding="UTF-8"?><svg xmlns="http://www.w3.org/2000/svg" xmlns:xlink="http://www.w3.org/1999/xlink" viewBox="0 0 147.29 137.65"><defs><style>.h{fill:#1d1d1b;font-family:CorbelLight, Corbel;font-size:12px;stroke:#1d1d1b;stroke-miterlimit:10;stroke-width:.25px;}.i{fill:url(#f);}.j{fill:url(#g);}.k{fill:url(#d);}.l{fill:url(#e);}.m{letter-spacing:-.05em;}</style><linearGradient id="d" x1="35.5" y1="0" x2="35.5" y2="137.65" gradientTransform="matrix(1, 0, 0, 1, 0, 0)" gradientUnits="userSpaceOnUse"><stop offset=".05" stop-color="#292e2a"/><stop offset=".13" stop-color="#771d20"/><stop offset=".2" stop-color="#b11019"/><stop offset=".25" stop-color="#d50814"/><stop offset=".27" stop-color="#e30613"/><stop offset=".84" stop-color="#fcea10"/><stop offset=".86" stop-color="#f1e00f"/><stop offset=".89" stop-color="#d4c50e"/><stop offset=".93" stop-color="#a49a0b"/><stop offset=".99" stop-color="#646008"/><stop offset="1" stop-color="#514f08"/></linearGradient><linearGradient id="e" x1="37.28" y1="0" x2="37.28" y2="137.65" gradientTransform="matrix(1, 0, 0, 1, 0, 0)" gradientUnits="userSpaceOnUse"><stop offset="0" stop-color="#db4f91"/><stop offset="0" stop-color="#db5094"/><stop offset="0" stop-color="#da5094"/><stop offset="0" stop-color="#d05d9e"/><stop offset="0" stop-color="#cb64a3"/><stop offset="0" stop-color="#ca67a5"/><stop offset="0" stop-color="#cf71ab"/><stop offset=".01" stop-color="#d882b5"/><stop offset=".02" stop-color="#df8ebb"/><stop offset=".04" stop-color="#e295bf"/><stop offset=".09" stop-color="#e497c1"/><stop offset="1" stop-color="#e73442"/></linearGradient><linearGradient id="f" x1="611.07" y1="0" x2="611.07" y2="137.65" gradientTransform="translate(692.59) rotate(-180) scale(.95 -1)" xlink:href="#d"/><linearGradient id="g" x1="612.94" y1="0" x2="612.94" y2="137.65" gradientTransform="translate(692.59) rotate(-180) scale(.95 -1)" xlink:href="#e"/></defs><g id="a"/><g id="b"><g id="c"><text class="h" transform="translate(43.43 129.85)"><tspan x="0" y="0">NOMI-</tspan><tspan class="m" x="33.13" y="0">K</tspan><tspan x="39.29" y="0">OMI</tspan></text><path class="k" d="M11.18,137.65c-3.53-9.79-6.47-23.4-.72-35.65,6.75-14.4,21.13-17.33,20.61-26.87-.53-9.58-14.3-11.14-23.37-23.15C1.48,43.74-3.82,28.87,3.68,0c2.07,2.19,5.35,5.27,9.91,8.09,17.52,10.8,32.78,4.54,42.52,8.87,10.23,4.54,18.48,22.57,13.3,78-.76,4.19-2.51,9.75-7.04,13.83-12.33,11.09-32.33-1.48-44.07,8.51-3.35,2.85-7.05,8.4-7.12,20.36Z"/><path class="l" d="M11.18,137.65c-1.01-5.63-1.68-15.23,3.39-24.17,3.76-6.64,9.42-10.61,13.42-13.52,9.66-7.02,13.99-5.32,18.08-10.94,3.67-5.04,3.33-10.72,2.74-20.54-.64-10.72-1.19-19.88-7.63-26.22-5.52-5.43-8.8-2.32-19.25-9.05-4.34-2.8-11.25-7.37-15.3-15.99C3.35,10.24,3.37,3.65,3.68,0c2.07,2.19,5.35,5.27,9.91,8.09,18.32,11.3,29.47,3.07,42.52,8.87,10.23,4.54,18.48,22.57,13.3,78-.6,6.47-3.81,10.36-7.04,13.83-6.86,7.35-21.14,6.32-32.66,11.74-4.95,2.33-11.96,6.95-18.53,17.13Z"/><path class="i" d="M136.11,137.65c3.53-9.79,6.47-23.4,.72-35.65-6.75-14.4-21.13-17.33-20.61-26.87,.53-9.58,14.3-11.14,23.37-23.15,6.22-8.24,11.52-23.11,4.02-51.98-2.07,2.19-5.35,5.27-9.91,8.09-17.52,10.8-32.78,4.54-42.52,8.87-10.23,4.54-18.48,22.57-13.3,78,.76,4.19,2.51,9.75,7.04,13.83,12.33,11.09,32.33-1.48,44.07,8.51,3.35,2.85,7.05,8.4,7.12,20.36Z"/><path class="j" d="M136.11,137.65c1.01-5.63,1.68-15.23-3.39-24.17-3.76-6.64-9.42-10.61-13.42-13.52-9.66-7.02-13.99-5.32-18.08-10.94-3.67-5.04-3.33-10.72-2.74-20.54,.64-10.72,1.19-19.88,7.63-26.22,5.52-5.43,8.8-2.32,19.25-9.05,4.34-2.8,11.25-7.37,15.3-15.99,3.27-6.97,3.25-13.57,2.95-17.22-2.07,2.19-5.35,5.27-9.91,8.09-18.32,11.3-29.47,3.07-42.52,8.87-10.23,4.54-18.48,22.57-13.3,78,.6,6.47,3.81,10.36,7.04,13.83,6.86,7.35,21.14,6.32,32.66,11.74,4.95,2.33,11.96,6.95,18.53,17.13Z"/></g></g></svg>