<?xml version="1.0" encoding="UTF-8" standalone="no"?><!-- Generator: Gravit.io --><svg xmlns="http://www.w3.org/2000/svg" xmlns:xlink="http://www.w3.org/1999/xlink" style="isolation:isolate" viewBox="0 0 297.638 419.528" width="297.638pt" height="419.528pt"><defs><clipPath id="_clipPath_uHkW9tTbFH0WHaQcSdIMDIluiQdKnh3G"><rect width="297.638" height="419.528"/></clipPath></defs><g clip-path="url(#_clipPath_uHkW9tTbFH0WHaQcSdIMDIluiQdKnh3G)"><mask id="_mask_RmwtoHPFPSxiKxlkYAUw1ftwS42YoX1e"><path d=" M 65.333 140.667 C 65.333 118.333 67.341 78.01 87 61.667 C 104.738 46.921 157 32 203 47.667 C 218.547 52.961 236.515 59.099 241.333 86.667 Q 255.667 168.667 247.5 356.333 Q 247.196 363.208 247.5 369.375 C 247.993 379.381 241 379.667 232.333 379.667 C 219.924 379.667 230.98 357.713 218.333 354.333 C 178.616 343.721 112.206 348.569 87 352.667 C 83.495 353.236 86.09 366.4 83.667 369.375 C 79.444 374.559 67.925 379.065 61.5 370.688 C 59.213 367.706 58.875 352.688 58.688 345.75 Q 65.333 226.108 65.333 140.667 Z " fill="white" stroke="none"/></mask><path d=" M 65.333 140.667 C 65.333 118.333 67.341 78.01 87 61.667 C 104.738 46.921 157 32 203 47.667 C 218.547 52.961 236.515 59.099 241.333 86.667 Q 255.667 168.667 247.5 356.333 Q 247.196 363.208 247.5 369.375 C 247.993 379.381 241 379.667 232.333 379.667 C 219.924 379.667 230.98 357.713 218.333 354.333 C 178.616 343.721 112.206 348.569 87 352.667 C 83.495 353.236 86.09 366.4 83.667 369.375 C 79.444 374.559 67.925 379.065 61.5 370.688 C 59.213 367.706 58.875 352.688 58.688 345.75 Q 65.333 226.108 65.333 140.667 Z " fill="rgb(185,72,72)"/><path d=" M 65.333 140.667 C 65.333 118.333 67.341 78.01 87 61.667 C 104.738 46.921 157 32 203 47.667 C 218.547 52.961 236.515 59.099 241.333 86.667 Q 255.667 168.667 247.5 356.333 Q 247.196 363.208 247.5 369.375 C 247.993 379.381 241 379.667 232.333 379.667 C 219.924 379.667 230.98 357.713 218.333 354.333 C 178.616 343.721 112.206 348.569 87 352.667 C 83.495 353.236 86.09 366.4 83.667 369.375 C 79.444 374.559 67.925 379.065 61.5 370.688 C 59.213 367.706 58.875 352.688 58.688 345.75 Q 65.333 226.108 65.333 140.667 Z " fill="rgb(185,72,72)" mask="url(#_mask_RmwtoHPFPSxiKxlkYAUw1ftwS42YoX1e)" vector-effect="non-scaling-stroke" stroke-width="4" stroke="rgb(108,54,54)" stroke-linejoin="miter" stroke-linecap="square" stroke-miterlimit="3"/><circle vector-effect="non-scaling-stroke" cx="112.5833333333333" cy="119.37499999999999" r="18.16666666666667" fill="rgb(55,40,40)"/><circle vector-effect="non-scaling-stroke" cx="213.68750000000006" cy="119.37499999999999" r="18.166666666666686" fill="rgb(55,40,40)"/><mask id="_mask_qIx6HcGnMCYyER5RcjegktLtMv0G6NOe"><path d=" M 95.344 302.5 Q 88.031 288.703 70.895 273.246 C 69.224 271.739 69.3 269.381 71.064 267.985 L 115.63 232.695 C 120.112 229.147 126.472 230.024 129.825 234.654 L 134.75 241.453 L 191.387 307.058 C 192.858 308.761 192.35 310.809 190.254 311.628 L 180.984 315.25 C 166.922 334.406 148.922 342.984 141.275 352.784 C 139.89 354.558 137.481 354.7 135.897 353.101 Q 106.358 323.28 95.344 302.5 Z " fill="white" stroke="none"/></mask><path d=" M 95.344 302.5 Q 88.031 288.703 70.895 273.246 C 69.224 271.739 69.3 269.381 71.064 267.985 L 115.63 232.695 C 120.112 229.147 126.472 230.024 129.825 234.654 L 134.75 241.453 L 191.387 307.058 C 192.858 308.761 192.35 310.809 190.254 311.628 L 180.984 315.25 C 166.922 334.406 148.922 342.984 141.275 352.784 C 139.89 354.558 137.481 354.7 135.897 353.101 Q 106.358 323.28 95.344 302.5 Z " fill="rgb(168,108,30)"/><path d=" M 95.344 302.5 Q 88.031 288.703 70.895 273.246 C 69.224 271.739 69.3 269.381 71.064 267.985 L 115.63 232.695 C 120.112 229.147 126.472 230.024 129.825 234.654 L 134.75 241.453 L 191.387 307.058 C 192.858 308.761 192.35 310.809 190.254 311.628 L 180.984 315.25 C 166.922 334.406 148.922 342.984 141.275 352.784 C 139.89 354.558 137.481 354.7 135.897 353.101 Q 106.358 323.28 95.344 302.5 Z " fill="rgb(168,108,30)" mask="url(#_mask_qIx6HcGnMCYyER5RcjegktLtMv0G6NOe)" vector-effect="non-scaling-stroke" stroke-width="2" stroke="rgb(0,0,0)" stroke-linejoin="miter" stroke-linecap="square" stroke-miterlimit="3"/><line x1="88.375" y1="255.29" x2="101.625" y2="272.21" vector-effect="non-scaling-stroke" stroke-width="1" stroke="rgb(142,91,23)" stroke-linejoin="miter" stroke-linecap="square" stroke-miterlimit="3"/><mask id="_mask_QD6zN7nT9WYS0082BuRKthH97fWKVHik"><path d=" M 74.237 164.333 C 73.466 169.104 72.606 170.293 71.95 175.649 C 71.34 180.628 70.907 189.811 70.886 193.419 C 70.282 210.161 69.91 225.3 69.952 238.502 C 69.301 246.206 69.49 262.081 69.952 268.833 C 70.295 273.839 70.941 271.984 71.252 275.285 C 74.681 286.179 91.086 283.838 93.352 274.248 C 93.187 257.729 95.64 240.103 94.615 224.764 C 94.322 207.424 95.612 193.039 94.615 179.414 C 94.232 174.183 91.978 166.984 90.001 164.333" fill="white" stroke="none"/></mask><path d=" M 74.237 164.333 C 73.466 169.104 72.606 170.293 71.95 175.649 C 71.34 180.628 70.907 189.811 70.886 193.419 C 70.282 210.161 69.91 225.3 69.952 238.502 C 69.301 246.206 69.49 262.081 69.952 268.833 C 70.295 273.839 70.941 271.984 71.252 275.285 C 74.681 286.179 91.086 283.838 93.352 274.248 C 93.187 257.729 95.64 240.103 94.615 224.764 C 94.322 207.424 95.612 193.039 94.615 179.414 C 94.232 174.183 91.978 166.984 90.001 164.333" fill="rgb(185,72,72)"/><path d=" M 74.237 164.333 C 73.466 169.104 72.606 170.293 71.95 175.649 C 71.34 180.628 70.907 189.811 70.886 193.419 C 70.282 210.161 69.91 225.3 69.952 238.502 C 69.301 246.206 69.49 262.081 69.952 268.833 C 70.295 273.839 70.941 271.984 71.252 275.285 C 74.681 286.179 91.086 283.838 93.352 274.248 C 93.187 257.729 95.64 240.103 94.615 224.764 C 94.322 207.424 95.612 193.039 94.615 179.414 C 94.232 174.183 91.978 166.984 90.001 164.333" fill="rgb(185,72,72)" mask="url(#_mask_QD6zN7nT9WYS0082BuRKthH97fWKVHik)" vector-effect="non-scaling-stroke" stroke-width="4" stroke="rgb(108,54,54)" stroke-linejoin="miter" stroke-linecap="square" stroke-miterlimit="3"/><mask id="_mask_xPIUgx4FEczNZe9f2Ra8hifzf1rbnjTs"><path d=" M 250.016 276.781 C 254.036 275.827 258.032 273.198 259.001 269.101 C 258.836 252.582 261.289 234.955 260.264 219.616 C 259.971 202.277 261.261 187.891 260.264 174.266 C 260.09 171.894 257.243 164.324 256.5 161.75 C 255.605 158.649 249.875 160.266 248.672 159.186" fill="white" stroke="none"/></mask><path d=" M 250.016 276.781 C 254.036 275.827 258.032 273.198 259.001 269.101 C 258.836 252.582 261.289 234.955 260.264 219.616 C 259.971 202.277 261.261 187.891 260.264 174.266 C 260.09 171.894 257.243 164.324 256.5 161.75 C 255.605 158.649 249.875 160.266 248.672 159.186" fill="rgb(155,57,57)"/><path d=" M 250.016 276.781 C 254.036 275.827 258.032 273.198 259.001 269.101 C 258.836 252.582 261.289 234.955 260.264 219.616 C 259.971 202.277 261.261 187.891 260.264 174.266 C 260.09 171.894 257.243 164.324 256.5 161.75 C 255.605 158.649 249.875 160.266 248.672 159.186" fill="rgb(155,57,57)" mask="url(#_mask_xPIUgx4FEczNZe9f2Ra8hifzf1rbnjTs)" vector-effect="non-scaling-stroke" stroke-width="4" stroke="rgb(108,54,54)" stroke-linejoin="miter" stroke-linecap="square" stroke-miterlimit="3"/><mask id="_mask_BQ1OGBLJwSLeUpHUPXGTD9r5CmB0UIv4"><path d=" M 133.822 129.708 C 134.025 128.392 134.282 127.169 139.26 126.094 C 150.702 123.621 171.371 124.202 186.135 126.094 C 196.232 127.387 195.51 128.929 195.51 130.875 C 195.51 132.228 190.447 133.031 187.26 133.5 C 171.298 135.847 150.022 136.159 138.51 133.5 C 133.551 132.355 133.611 131.078 133.822 129.708 Z " fill="white" stroke="none"/></mask><path d=" M 133.822 129.708 C 134.025 128.392 134.282 127.169 139.26 126.094 C 150.702 123.621 171.371 124.202 186.135 126.094 C 196.232 127.387 195.51 128.929 195.51 130.875 C 195.51 132.228 190.447 133.031 187.26 133.5 C 171.298 135.847 150.022 136.159 138.51 133.5 C 133.551 132.355 133.611 131.078 133.822 129.708 Z " fill="none"/><path d=" M 133.822 129.708 C 134.025 128.392 134.282 127.169 139.26 126.094 C 150.702 123.621 171.371 124.202 186.135 126.094 C 196.232 127.387 195.51 128.929 195.51 130.875 C 195.51 132.228 190.447 133.031 187.26 133.5 C 171.298 135.847 150.022 136.159 138.51 133.5 C 133.551 132.355 133.611 131.078 133.822 129.708 Z " fill="none" mask="url(#_mask_BQ1OGBLJwSLeUpHUPXGTD9r5CmB0UIv4)" vector-effect="non-scaling-stroke" stroke-width="2" stroke="rgb(98,33,33)" stroke-linejoin="miter" stroke-linecap="square" stroke-miterlimit="3"/><path d=" M 18.984 389.069 C 17.438 386.209 24.144 378.412 29.724 376.758 C 35.884 374.462 48.187 375.563 59.813 376.758 L 58.688 359.25 Q 65.792 357.786 69.708 357.413 Q 75.04 356.904 84.936 357.413 C 85.053 366.932 84.405 375.664 82.957 383.573 Q 81.977 388.939 79.879 391.048 Q 76.317 394.629 66.249 393.246 L 47.178 393.246 C 32.149 395.412 22.578 395.719 18.984 389.069 Z " fill="rgb(144,121,187)"/><line x1="121.25" y1="288.5" x2="161.201" y2="332.499" vector-effect="non-scaling-stroke" stroke-width="1" stroke="rgb(142,91,23)" stroke-linejoin="miter" stroke-linecap="square" stroke-miterlimit="3"/><line x1="159.75" y1="301.625" x2="173" y2="318.545" vector-effect="non-scaling-stroke" stroke-width="1" stroke="rgb(142,91,23)" stroke-linejoin="miter" stroke-linecap="square" stroke-miterlimit="3"/><path d=" M 72.914 377.93 L 84.305 373.875 L 83.25 383.573 Q 81.703 389.707 79.734 391.125 C 78.948 391.692 79.664 392.062 75.516 393.246 Q 72.808 393.845 68.52 393.504 L 72.914 377.93 Z " fill="rgb(70,55,98)"/><line x1="74.237" y1="375.609" x2="75.516" y2="378.984" vector-effect="non-scaling-stroke" stroke-width="0.5" stroke="rgb(0,0,0)" stroke-linejoin="miter" stroke-linecap="square" stroke-miterlimit="3"/><line x1="76.852" y1="374.977" x2="78.117" y2="377.93" vector-effect="non-scaling-stroke" stroke-width="0.5" stroke="rgb(0,0,0)" stroke-linejoin="miter" stroke-linecap="square" stroke-miterlimit="3"/><path d=" M 125.25 249 C 114.962 257.349 106.809 260.606 93.5 268" fill="none" vector-effect="non-scaling-stroke" stroke-width="1" stroke="rgb(0,0,0)" stroke-linejoin="miter" stroke-linecap="square" stroke-miterlimit="3"/><path d=" M 112.75 269.101 C 110.947 266.939 109.713 263.356 108 261" fill="none" vector-effect="non-scaling-stroke" stroke-width="1" stroke="rgb(0,0,0)" stroke-linejoin="miter" stroke-linecap="square" stroke-miterlimit="3"/><path d=" M 134.75 259.5 C 134.885 257.747 131.196 259.537 129.5 260 C 115.954 263.694 108.764 271.605 96.5 280.5" fill="none" vector-effect="non-scaling-stroke" stroke-width="1" stroke="rgb(0,0,0)" stroke-linejoin="miter" stroke-linecap="square" stroke-miterlimit="3"/><path d=" M 136.75 263.5 C 136.75 262.66 129.174 268.694 128.75 269 C 119.163 275.924 111.604 284.059 100.5 288.5 L 98.75 289.25" fill="none" vector-effect="non-scaling-stroke" stroke-width="1" stroke="rgb(0,0,0)" stroke-linejoin="miter" stroke-linecap="square" stroke-miterlimit="3"/><line x1="103.75" y1="302.5" x2="99" y2="289.25" vector-effect="non-scaling-stroke" stroke-width="1" stroke="rgb(0,0,0)" stroke-linejoin="miter" stroke-linecap="square" stroke-miterlimit="3"/><path d=" M 128.75 289.25 C 127.922 283.274 121.973 281.878 117.75 278.5" fill="none" vector-effect="non-scaling-stroke" stroke-width="1" stroke="rgb(0,0,0)" stroke-linejoin="miter" stroke-linecap="square" stroke-miterlimit="3"/><path d=" M 144 275.285 C 142.292 270.08 141.041 270.015 136.25 263.75" fill="none" vector-effect="non-scaling-stroke" stroke-width="1" stroke="rgb(0,0,0)" stroke-linejoin="miter" stroke-linecap="square" stroke-miterlimit="3"/><path d=" M 151.25 281.75 C 141.016 289.257 130.549 296.605 119.75 303.25 C 104.346 310.952 119.045 307.272 121 319 L 121.25 320.5 L 121.25 321.5" fill="none" vector-effect="non-scaling-stroke" stroke-width="1" stroke="rgb(0,0,0)" stroke-linejoin="miter" stroke-linecap="square" stroke-miterlimit="3"/><path d=" M 159.75 296.25 C 152.603 310.068 140.316 319.913 128.5 329.5" fill="none" vector-effect="non-scaling-stroke" stroke-width="1" stroke="rgb(0,0,0)" stroke-linejoin="miter" stroke-linecap="square" stroke-miterlimit="3"/><path d=" M 159.75 296.25 C 175.912 296.514 173.699 308.512 162.75 315.25 C 159.709 316.01 149.75 315.66 149.75 312" fill="none" vector-effect="non-scaling-stroke" stroke-width="1" stroke="rgb(0,0,0)" stroke-linejoin="miter" stroke-linecap="square" stroke-miterlimit="3"/><line x1="130.75" y1="246.5" x2="144" y2="263.42" vector-effect="non-scaling-stroke" stroke-width="1" stroke="rgb(142,91,23)" stroke-linejoin="miter" stroke-linecap="square" stroke-miterlimit="3"/><line x1="112.793" y1="315.58" x2="130.75" y2="340.5" vector-effect="non-scaling-stroke" stroke-width="1" stroke="rgb(142,91,23)" stroke-linejoin="miter" stroke-linecap="square" stroke-miterlimit="3"/></g></svg>