<?xml version="1.0" encoding="UTF-8"?><svg xmlns="http://www.w3.org/2000/svg" viewBox="0 0 223.1 237.67"><defs><style>.d{font-size:29.78px;}.d,.e,.f{fill:#1d1d1b;font-family:MyriadPro-Regular, Myriad Pro;}.g{stroke-width:.75px;}.g,.h{fill:none;stroke:#1d1d1b;stroke-miterlimit:10;}.e{font-size:29.78px;}.f{font-size:59.56px;}</style></defs><g id="a"/><g id="b"><g id="c"><path class="h" d="M109.2,194.15c-6.65-7.52,3.06-30.19,.55-55.1-.08-.75-.43-5.3-1.14-14.4-.46-5.84,.78-11.81-.33-17.56-.15-.8-.59-2.84,.49-4.61,1.03-1.69,2.91-2.27,3.43-2.43,2.56-.79,4.77,.19,5.38,.49,7.79,.87,16.54,1.41,26.1,1.29,7.14-.08,13.79-.52,19.89-1.17,.37-.04,2.48-.26,4.08,1.17,1.67,1.49,2.11,4.14,.98,6.47,.01,3.46,.07,8.68,.3,15.04,.43,12.2,.89,12.54,1.01,19.27,.27,15.25-2.05,18.02-.96,29.26,.66,6.84,2.14,12.3,3.24,15.73-.41,3.77-2.51,6.71-5.26,7.4-.61,.15-1.68,.3-3.07-.12-.7-.34-1.4-.69-2.1-1.03"/><path class="h" d="M170.42,136.95c.9-.43,1.77-.91,2.61-1.45,4.39-2.79,6.14-7.01,7.1-9.22,1.51-3.51,5.16-11.97,.98-20.27-2.52-5-7.67-9.52-13.82-10.68-10.91-2.06-20.52,7.28-23.61,3.88-1.18-1.29-1.29-4.31-1.33-5.26-.07-1.91,.29-3.46,.6-4.45"/><path class="h" d="M169.71,137.27c.24-.11,.47-.21,.7-.33"/><path class="h" d="M169.41,137.4c.1-.04,.2-.09,.3-.13"/><path class="h" d="M109.81,134.32c.07,0,.14,0,.21,0"/><path class="h" d="M108.9,134.29c.3,0,.61,.01,.91,.03"/><path class="h" d="M107.99,134.29c.3,0,.61,0,.91,0"/><path class="h" d="M168.8,162.66c11.06,.13,13.72-.71,13.85-1.6,.62-4.17-27.25-21.68-52.85-15.86-4.47,1.02-10.54,3.13-27.89,7.44-11.8,2.93-16.05,3.99-18.23,1.7-.94-1-1.14-2.24-1.22-2.73-.68-4.21,3.41-7.93,5.5-9.83,1.45-1.31,5.47-4.68,10.68-6.29,2.82-.87,5.96-1.21,9.34-1.21"/><path class="h" d="M108.48,168.91c.27-.12,.54-.23,.81-.34"/><path class="h" d="M161.78,193.85c-1.3-.62-30.56-14.16-42.66-2.28-1.14,1.12-3.29,3.23-3.01,5.74,.95,8.75,30.41,16.11,56.66,10.5,5.89-1.26,12.53-2.68,19.84-7.26,20.05-12.58,24.77-35.74,26.91-46.29,4.55-22.37-.96-40.53-3.4-48.28-1.27-4.02-3.15-9.9-6.98-16.73-1.86-3.32-14.56-25.25-39.64-35.32-36.76-14.76-72.07,7.24-77.86,10.99-36.08,23.44-41.39,63.08-42.08,68.94-.44,3.78-5.23,50.51,26.1,77.36,11.67,10.01,24.05,13.55,45.67,19.74,14.86,4.26,28.73,8.07,46,5.18,16.99-2.84,34.72-11.74,33.93-17.15-.42-2.87-6-4.44-9.79-5.5-9.69-2.73-18.04-1.01-19.9-.65-12.69,2.51-26.32,1.53-53.58-.44-24.68-1.78-28.58-5.33-30.25-8.3-4.78-8.51,3.45-21.15,4.24-22.33,5.38-8.08,13.14-11.32,16.22-12.41"/><path class="g" d="M110.56,118.66v-3.76c0-3.15,2.57-5.7,5.75-5.7h0c3.18,0,5.75,2.55,5.75,5.7v3.03"/><line class="g" x1="110.56" y1="133.31" x2="110.56" y2="124.49"/><path class="g" d="M122.06,178.1c0,2.3-2.57,4.17-5.75,4.17h0c-3.18,0-5.75-1.87-5.75-4.17v-15.98"/><line class="g" x1="122.06" y1="117.93" x2="122.06" y2="137.84"/><path class="g" d="M125.04,115.67v-1.42c0-3.15,2.57-5.7,5.75-5.7h0c3.18,0,5.75,2.55,5.75,5.7v12.34"/><line class="g" x1="125.04" y1="154.51" x2="125.04" y2="125.86"/><path class="g" d="M136.54,175.91c0,3.15-2.57,5.7-5.75,5.7h0c-3.18,0-5.75-2.55-5.75-5.7v-17.52"/><line class="g" x1="136.54" y1="158.39" x2="136.54" y2="160.42"/><line class="g" x1="136.54" y1="153.62" x2="136.54" y2="154.51"/><line class="g" x1="136.54" y1="139.38" x2="136.54" y2="153.78"/><line class="g" x1="136.54" y1="127.24" x2="136.54" y2="139.38"/><path class="g" d="M167.66,175.55v.36c0,3.15-2.57,5.7-5.75,5.7h0c-3.18,0-5.75-2.55-5.75-5.7v-13.07"/><line class="g" x1="167.66" y1="124.41" x2="167.66" y2="168.99"/><line class="g" x1="167.66" y1="122.87" x2="167.66" y2="124.49"/><path class="g" d="M156.16,124.97v-10.72c0-3.15,2.57-5.7,5.75-5.7h0c3.18,0,5.75,2.55,5.75,5.7v1.42"/><line class="g" x1="156.16" y1="136.58" x2="156.16" y2="132.21"/><line class="g" x1="156.16" y1="153.13" x2="156.16" y2="135.73"/><path class="g" d="M141.23,124.49v-9.59c0-3.15,2.57-5.7,5.75-5.7h0c3.18,0,5.75,2.55,5.75,5.7v16.79"/><path class="g" d="M152.73,176.56c0,3.15-2.57,5.7-5.75,5.7h0c-3.18,0-5.75-2.55-5.75-5.7v-46.08"/><line class="g" x1="152.73" y1="131.69" x2="152.73" y2="148.68"/><text class="d" transform="translate(54.2 110.14) rotate(-64.54) skewX(-.04)"><tspan x="0" y="0">N</tspan></text><text class="d" transform="translate(64.5 89.38) rotate(-49.3)"><tspan x="0" y="0">O</tspan></text><text class="d" transform="translate(80.31 71.44) rotate(-32.79) skewX(.05)"><tspan x="0" y="0">M</tspan></text><text class="d" transform="translate(104.46 57.41) rotate(-20.5) skewX(.08)"><tspan x="0" y="0">I</tspan></text><text class="f" transform="translate(115.41 53.45) rotate(-11.62) skewX(.09)"><tspan x="0" y="0"> </tspan></text><text class="e" transform="translate(160.42 72.59) rotate(31.88)"><tspan x="0" y="0">K</tspan></text><text class="e" transform="translate(177.45 83.51) rotate(51.43)"><tspan x="0" y="0">O</tspan></text><text class="e" transform="translate(192.6 103.28) rotate(74.71)"><tspan x="0" y="0">M</tspan></text><text class="e" transform="translate(198.24 131.31) rotate(91.41)"><tspan x="0" y="0">I</tspan></text><path class="h" d="M159.56,92.7c-5.68-4.28-12.95-5.34-18.91-2.62-5.23,2.38-7.64,6.85-8.4,8.43-1.78-3.18-4.24-8.51-5.14-15.54-.77-5.98-.12-10.99,.58-14.31,.13,1.83,.71,6.55,4.38,10.6,1.54,1.7,3.19,2.8,4.49,3.5-.37-2.47-.61-6.06,.22-10.25,1.32-6.68,4.64-11.29,6.54-13.55-1.56,6.09-1.11,10.96-.44,14.17,.46,2.18,1.72,8.2,4.33,8.48,2.44,.26,4.83-4.63,5.85-6.72,1.79-3.67,2.31-7.04,2.48-9.23,1.34,9.02,2.68,18.03,4.01,27.05Z"/><path d="M157.35,88.97c-1.55-.95-4.3-2.33-7.97-2.74-.58-.06-5.52-.55-10.52,1.81-.94,.45-2.63,1.26-4.35,2.93-.85,.82-1.45,1.61-1.86,2.2-.25-.44-.57-1.06-.93-1.81-.25-.54-.96-2.08-1.61-4.26-.23-.78-.51-1.69-.73-2.89-.23-1.23-.45-3-.34-5.18,.5,.58,1.22,1.36,2.15,2.24,1.46,1.39,2.23,2.12,3.4,2.71,.75,.37,2.01,.85,3.79,.89-.03-.82-.07-2.12-.13-3.72-.12-3.33-.14-3.72-.11-4.43,.07-2.09,.43-3.6,.83-5.35,.39-1.7,1.03-3.92,2.09-6.46-.67,3.4-.95,8.21,1.14,13.05,.66,1.53,2.75,6.37,5.69,6.36,1.55,0,2.96-1.37,3.95-2.31,1.3-1.25,1.96-2.56,2.35-3.33,.67-1.34,1-2.55,1.17-3.42,.67,4.56,1.34,9.13,2.01,13.69Z"/></g></g></svg>