<?xml version="1.0" encoding="UTF-8"?><svg xmlns="http://www.w3.org/2000/svg" viewBox="0 0 369.27 340.71"><defs><style>.d{letter-spacing:-.05em;}.e{fill:#fff;}.e,.f,.g{stroke:#1d1d1b;stroke-miterlimit:10;}.f,.g{fill:#1d1d1b;}.g{font-family:CorbelLight, Corbel;font-size:29.77px;stroke-width:.25px;}</style></defs><g id="a"/><g id="b"><g id="c"><path class="f" d="M26.34,336.28c-6.95-21.14-13.43-52.81,.1-82.1,16.65-36.06,52.41-43.19,51.12-66.65-1.3-23.76-35.47-27.63-57.97-57.43C4.17,109.65-8.97,72.77,9.62,1.16c5.13,5.42,13.26,13.08,24.59,20.06,43.46,26.8,81.31,11.27,105.48,22,25.37,11.27,45.85,55.98,33,193.48-1.89,10.39-6.23,24.19-17.47,34.3-30.06,27.05-78.76-4.12-109.31,21.11-7.4,6.11-16.93,18.12-19.56,44.17Z"/><path class="e" d="M27.56,339.43c-2.23-15.26-2.23-36.76,9.08-56.79,9.28-16.44,23.04-26.08,33.29-33.53,23.95-17.4,34.69-13.18,44.84-27.14,9.1-12.51,8.25-26.6,6.79-50.96-1.59-26.6-2.96-49.32-18.93-65.03-13.7-13.48-21.82-5.75-47.76-22.46-10.77-6.94-27.9-18.28-37.94-39.66C8.82,26.57,8.87,10.21,9.62,1.16c5.13,5.42,13.26,13.08,24.59,20.06,45.44,28.02,73.09,7.62,105.48,22,25.37,11.27,45.85,55.98,33,193.48-1.5,16.04-9.44,25.7-17.47,34.3-16.92,18.11-51.89,15.97-81.01,29.12-12.21,5.52-29.59,16.24-46.65,39.31Z"/><text class="g" transform="translate(109.22 329.82)"><tspan x="0" y="0">NOMI-</tspan><tspan class="d" x="82.18" y="0">K</tspan><tspan x="97.45" y="0">OMI</tspan></text><path class="f" d="M342.43,336.28c7.08-21.14,13.68-52.81-.1-82.1-16.97-36.06-53.4-43.19-52.09-66.65,1.33-23.76,36.14-27.63,59.06-57.43,15.72-20.44,29.11-57.32,10.17-128.94-5.23,5.42-13.52,13.08-25.06,20.06-44.28,26.8-82.85,11.27-107.48,22-25.85,11.27-46.72,55.98-33.63,193.48,1.93,10.39,6.35,24.19,17.8,34.3,30.63,27.05,80.25-4.12,111.38,21.11,7.54,6.11,17.25,18.12,19.93,44.17Z"/><path class="e" d="M341.2,339.43c2.27-15.26,2.27-36.76-9.25-56.79-9.46-16.44-23.47-26.08-33.92-33.53-24.41-17.4-35.35-13.18-45.69-27.14-9.27-12.51-8.41-26.6-6.92-50.96,1.62-26.6,3.01-49.32,19.29-65.03,13.96-13.48,22.23-5.75,48.66-22.46,10.97-6.94,28.43-18.28,38.66-39.66,8.28-17.3,8.23-33.65,7.46-42.71-5.23,5.42-13.52,13.08-25.06,20.06-46.31,28.02-74.47,7.62-107.48,22-25.85,11.27-46.72,55.98-33.63,193.48,1.53,16.04,9.62,25.7,17.8,34.3,17.24,18.11,52.87,15.97,82.54,29.12,12.45,5.52,30.15,16.24,47.54,39.31Z"/></g></g></svg>