<?xml version="1.0" encoding="UTF-8"?><svg xmlns="http://www.w3.org/2000/svg" xmlns:xlink="http://www.w3.org/1999/xlink" viewBox="0 0 253.15 266.18"><defs><style>.h{fill:#1d1d1b;font-family:CorbelLight, Corbel;font-size:20.41px;stroke:#1d1d1b;stroke-miterlimit:10;stroke-width:.25px;}.i{fill:url(#f);}.j{fill:url(#g);}.k{fill:url(#d);}.l{fill:url(#e);}.m{letter-spacing:-.05em;}</style><linearGradient id="d" x1="60.39" y1=".2" x2="60.39" y2="226.46" gradientTransform="matrix(1, 0, 0, 1, 0, 0)" gradientUnits="userSpaceOnUse"><stop offset="0" stop-color="#e30613"/><stop offset="1" stop-color="#fcea10"/></linearGradient><linearGradient id="e" x1="63.41" y1=".2" x2="63.41" y2="226.46" gradientTransform="matrix(1, 0, 0, 1, 0, 0)" gradientUnits="userSpaceOnUse"><stop offset="0" stop-color="#db4f91"/><stop offset="0" stop-color="#db5094"/><stop offset="0" stop-color="#da5094"/><stop offset="0" stop-color="#d05d9e"/><stop offset="0" stop-color="#cb64a3"/><stop offset="0" stop-color="#ca67a5"/><stop offset="0" stop-color="#cf71ab"/><stop offset=".01" stop-color="#d882b5"/><stop offset=".02" stop-color="#df8ebb"/><stop offset=".04" stop-color="#e295bf"/><stop offset=".09" stop-color="#e497c1"/><stop offset="1" stop-color="#e73442"/></linearGradient><linearGradient id="f" x1="137.91" y1="0" x2="137.91" y2="226.26" gradientTransform="translate(332.07) rotate(-180) scale(1.02 -1)" xlink:href="#d"/><linearGradient id="g" x1="140.93" y1="0" x2="140.93" y2="226.26" gradientTransform="translate(332.07) rotate(-180) scale(1.02 -1)" xlink:href="#e"/></defs><g id="a"/><g id="b"><g id="c"><path class="k" d="M16.02,226.46c-4.11-14.8-6.67-34.42,1.77-52.76,11.58-25.16,35.93-29.79,35.05-45.7-.89-16.29-24.32-18.94-39.75-39.38C2.52,74.6-6.49,49.31,6.25,.2c3.52,3.72,9.1,8.97,16.86,13.76,29.8,18.38,55.75,7.73,72.33,15.09,17.4,7.73,31.44,38.39,22.63,132.68-1.3,7.13-4.27,16.58-11.98,23.52-20.15,18.12-52.54-2.81-74.96,14.47-5.24,4.04-11.78,11.55-15.12,26.75Z"/><path class="l" d="M16.02,226.46c0-8.09,1.32-20.74,8.76-33.24,6.82-11.44,16.06-18.07,22.83-22.99,16.43-11.93,23.79-9.04,30.75-18.61,6.24-8.58,5.66-18.24,4.66-34.94-1.09-18.24-2.03-33.82-12.98-44.6-9.39-9.24-14.96-3.94-32.75-15.4-7.38-4.76-19.13-12.53-26.02-27.2C5.7,17.62,5.74,6.41,6.25,.2c3.52,3.72,9.1,8.97,16.86,13.76,31.16,19.22,50.12,5.22,72.33,15.09,17.4,7.73,31.44,38.39,22.63,132.68-1.03,11-6.48,17.62-11.98,23.52-11.27,12.07-34.84,12.19-55.55,19.97-8.5,3.19-20.93,9.17-34.53,21.26Z"/><text class="h" transform="translate(74.52 219.64)"><tspan x="0" y="0">NOMI-</tspan><tspan class="m" x="56.35" y="0">K</tspan><tspan x="66.83" y="0">OMI</tspan></text><path class="i" d="M236.85,226.26c4.18-14.8,6.79-34.42-1.8-52.76-11.79-25.16-36.58-29.79-35.69-45.7,.91-16.29,24.76-18.94,40.46-39.38,10.77-14.02,19.94-39.31,6.97-88.41-3.58,3.72-9.26,8.97-17.17,13.76-30.34,18.38-56.76,7.73-73.63,15.09-17.71,7.73-32.01,38.39-23.04,132.68,1.32,7.13,4.35,16.58,12.2,23.52,20.51,18.12,53.48-2.81,76.31,14.47,5.33,4.04,11.99,11.55,15.39,26.75Z"/><path class="j" d="M236.85,226.26c0-8.09-1.34-20.74-8.92-33.24-6.94-11.44-16.35-18.07-23.24-22.99-16.72-11.93-24.22-9.04-31.3-18.61-6.35-8.58-5.76-18.24-4.74-34.94,1.11-18.24,2.06-33.82,13.21-44.6,9.56-9.24,15.23-3.94,33.34-15.4,7.52-4.76,19.48-12.53,26.49-27.2,5.67-11.86,5.64-23.08,5.11-29.29-3.58,3.72-9.26,8.97-17.17,13.76-31.72,19.22-51.02,5.22-73.63,15.09-17.71,7.73-32.01,38.39-23.04,132.68,1.05,11,6.59,17.62,12.2,23.52,11.48,12.07,35.46,12.19,56.55,19.97,8.65,3.19,21.3,9.17,35.15,21.26Z"/></g></g></svg>